HIERARCHY
ROOT reference
{
  OFFSET 0 0 0
  CHANNELS 6 Xposition Yposition Zposition Zrotation Xrotation Yrotation
  JOINT Hips
  {
    OFFSET 0 97.8064 0
    CHANNELS 6 Xposition Yposition Zposition Zrotation Xrotation Yrotation
    JOINT ToSpine
    {
      OFFSET -2.69724 7.43032 -0.144315
      CHANNELS 6 Xposition Yposition Zposition Zrotation Xrotation Yrotation
      JOINT Spine
      {
        OFFSET -0.0310711 10.7595 1.96963
        CHANNELS 6 Xposition Yposition Zposition Zrotation Xrotation Yrotation
        JOINT Spine1
        {
          OFFSET 13.1342 3.43533 0.764692
          CHANNELS 6 Xposition Yposition Zposition Zrotation Xrotation Yrotation
          JOINT Neck
          {
            OFFSET 29.8703 7.82586 -0.130764
            CHANNELS 6 Xposition Yposition Zposition Zrotation Xrotation Yrotation
            JOINT Head
            {
              OFFSET 9.52751 0.295786 -0.907742
              CHANNELS 6 Xposition Yposition Zposition Zrotation Xrotation Yrotation
              End Site
              {
                OFFSET 16.4037 0.713936 2.7358
              }
            }
          }
          JOINT LeftShoulder
          {
            OFFSET 27.5574 4.95586 2.47156
            CHANNELS 6 Xposition Yposition Zposition Zrotation Xrotation Yrotation
            JOINT LeftArm
            {
              OFFSET 1.20734 -0.998971 20.1238
              CHANNELS 6 Xposition Yposition Zposition Zrotation Xrotation Yrotation
              JOINT LeftForeArm
              {
                OFFSET 26.8049 -0.0536703 -0.155908
                CHANNELS 6 Xposition Yposition Zposition Zrotation Xrotation Yrotation
                JOINT LeftHand
                {
                  OFFSET 26.6817 0 0.320147
                  CHANNELS 6 Xposition Yposition Zposition Zrotation Xrotation Yrotation
                  End Site
                  {
                    OFFSET 18.6119 0 0.382219
                  }
                }
              }
            }
          }
          JOINT RightShoulder
          {
            OFFSET 27.5927 4.71444 -2.65209
            CHANNELS 6 Xposition Yposition Zposition Zrotation Xrotation Yrotation
            JOINT RightArm
            {
              OFFSET 2.83739 -1.17114 -18.7564
              CHANNELS 6 Xposition Yposition Zposition Zrotation Xrotation Yrotation
              JOINT RightForeArm
              {
                OFFSET 28.839 -0.0548439 1.22491
                CHANNELS 6 Xposition Yposition Zposition Zrotation Xrotation Yrotation
                JOINT RightHand
                {
                  OFFSET 26.5114 0 -0.101894
                  CHANNELS 6 Xposition Yposition Zposition Zrotation Xrotation Yrotation
                  End Site
                  {
                    OFFSET 18.2168 0 0
                  }
                }
              }
            }
          }
        }
      }
    }
    JOINT LeftUpLeg
    {
      OFFSET -4.76168 -1.9167 -10.2353
      CHANNELS 6 Xposition Yposition Zposition Zrotation Xrotation Yrotation
      JOINT LeftLeg
      {
        OFFSET 2.55951 -42.0585 -8.02213
        CHANNELS 6 Xposition Yposition Zposition Zrotation Xrotation Yrotation
        JOINT LeftFoot
        {
          OFFSET 3.16357 -42.5282 -3.95426
          CHANNELS 6 Xposition Yposition Zposition Zrotation Xrotation Yrotation
          JOINT LeftToeBase
          {
            OFFSET 0.346054 -6.02161 12.8035
            CHANNELS 6 Xposition Yposition Zposition Zrotation Xrotation Yrotation
            End Site
            {
              OFFSET 0.134235 -1.35082 5.13018
            }
          }
        }
      }
    }
    JOINT RightUpLeg
    {
      OFFSET -4.94151 -1.41743 10.6446
      CHANNELS 6 Xposition Yposition Zposition Zrotation Xrotation Yrotation
      JOINT RightLeg
      {
        OFFSET -2.56294 -42.0364 -7.94377
        CHANNELS 6 Xposition Yposition Zposition Zrotation Xrotation Yrotation
        JOINT RightFoot
        {
          OFFSET -3.0952 -42.555 -4.02241
          CHANNELS 6 Xposition Yposition Zposition Zrotation Xrotation Yrotation
          JOINT RightToeBase
          {
            OFFSET -0.0828122 -6.13587 12.8035
            CHANNELS 6 Xposition Yposition Zposition Zrotation Xrotation Yrotation
            End Site
            {
              OFFSET -0.131328 -1.35082 5.13018
            }
          }
        }
      }
    }
  }
}
MOTION
Frames:	7
Frame Time:	0.0333333
0 0 0 0 0 -0 18.2831 85.5361 -13.6922 52.4732 -40.293 -22.4871 -2.69724 7.43032 -0.144315 -70.1915 -1.59028e-015 88.8779 -0.0310711 10.7595 1.96963 121.14 70.9537 -36.1618 13.1342 3.43533 0.764692 3.27664 22.2595 3.55246 29.8703 7.82586 -0.130764 -113.852 31.3468 162.829 9.52751 0.295786 -0.907742 151.877 66.1612 -99.9726 27.5574 4.95586 2.47156 1.00644 -8.45888 -5.94071 1.20734 -0.998971 20.1238 -67.3532 45.0656 -156.294 26.8049 -0.0536703 -0.155908 32.7575 -3.39569 -94.5385 26.6817 0 0.320147 -3.18055e-015 2.38542e-015 -1.59028e-015 27.5927 4.71444 -2.65209 -2.80841 8.13642 48.5562 2.83739 -1.17114 -18.7564 -125.871 -4.06392 82.8884 28.839 -0.0548439 1.22491 11.493 -6.52908 60.807 26.5114 1.42109e-014 -0.101894 -1.11402e-012 -4.76474e-009 -0.0296889 -4.76168 -1.9167 -10.2353 -9.98072 19.5749 79.8448 2.55951 -42.0585 -8.02213 -2.87522 38.1973 -10.2536 3.16357 -42.5282 -3.95426 -7.94607 15.0034 3.1154 0.346054 -6.02161 12.8035 3.76206 -8.17649 0.352249 -4.94151 -1.41743 10.6446 -29.1091 -9.56454 95.3616 -2.56294 -42.0364 -7.94377 3.73325 57.9428 -1.93537 -3.0952 -42.555 -4.02241 -5.71107 -18.2291 1.41458 -0.0828122 -6.13587 12.8035 2.28669 -19.0099 -16.4794 
0 0 0 0 0 -0 24.1623 87.5638 -13.1802 55.3198 -42.6583 -21.4083 -2.69724 7.43032 -0.144315 -70.1915 1.59028e-015 88.8779 -0.0310711 10.7595 1.96963 119.754 72.224 -33.7847 13.1342 3.43533 0.764692 1.80612 23.3951 3.64141 29.8703 7.82586 -0.130764 -114.995 32.8238 164.921 9.52751 0.295786 -0.907742 150.774 67.2329 -101.874 27.5574 4.95586 2.47156 1.02044 -7.23519 -7.4559 1.20734 -0.998971 20.1238 -66.269 44.7907 -151.97 26.8049 -0.0536703 -0.155908 30.6512 -4.47575 -96.7798 26.6817 -5.68434e-014 0.320147 -3.18055e-015 -7.95139e-016 -3.18055e-015 27.5927 4.71444 -2.65209 -2.57776 7.7756 47.3227 2.83739 -1.17114 -18.7564 -122.23 -3.00122 82.6436 28.839 -0.0548439 1.22491 9.06977 -7.41321 51.1782 26.5114 4.26326e-014 -0.101894 -1.10766e-012 -4.76473e-009 -0.0296889 -4.76168 -1.9167 -10.2353 -18.1442 19.825 81.704 2.55951 -42.0585 -8.02213 -2.83391 36.6275 -11.6527 3.16357 -42.5282 -3.95426 -8.21247 10.4798 2.52549 0.346054 -6.02161 12.8035 3.13111 -6.84473 0.273166 -4.94151 -1.41743 10.6446 -36.9379 -12.7009 93.9932 -2.56294 -42.0364 -7.94377 3.46513 52.2032 1.67846 -3.0952 -42.555 -4.02241 -6.28993 -11.1814 1.21328 -0.0828122 -6.13587 12.8035 2.05193 -21.5655 -20.6317 
0 0 0 0 0 -0 29.3804 89.1853 -13.1616 58.6123 -45.1255 -20.3215 -2.69724 7.43032 -0.144315 -70.1915 -6.36111e-015 88.8779 -0.0310711 10.7595 1.96963 123.249 72.3725 -37.3738 13.1342 3.43533 0.764692 -0.78183 24.1837 4.76105 29.8703 7.82586 -0.130764 -119.118 35.2523 168.182 9.52751 0.295786 -0.907742 146.875 68.109 -102.875 27.5574 4.95586 2.47156 1.07968 -6.66379 -9.47084 1.20734 -0.998971 20.1238 -67.6457 45.481 -146.484 26.8049 -0.0536703 -0.155908 29.5581 -5.69101 -99.1861 26.6817 -2.84217e-014 0.320147 0 7.95139e-016 -0 27.5927 4.71444 -2.65209 -2.43536 7.8707 45.1477 2.83739 -1.17114 -18.7564 -120.27 -2.78423 81.454 28.839 -0.0548439 1.22491 7.03653 -7.15719 44.962 26.5114 2.84217e-014 -0.101894 -1.10766e-012 -4.76474e-009 -0.0296889 -4.76168 -1.9167 -10.2353 -24.5704 19.405 85.9445 2.55951 -42.0585 -8.02213 -3.2032 39.3139 -13.3672 3.16357 -42.5282 -3.95426 -6.5054 3.7721 1.24944 0.346054 -6.02161 12.8035 2.92525 -6.66449 1.11954 -4.94151 -1.41743 10.6446 -41.4247 -15.3574 93.5168 -2.56294 -42.0364 -7.94377 2.69848 50.7051 -0.74638 -3.0952 -42.555 -4.02241 -6.2531 -5.97852 1.09731 -0.0828122 -6.13587 12.8035 2.35501 -16.9844 -17.464 
0 0 0 0 0 -0 33.5495 90.3097 -13.466 59.2593 -45.857 -20.7003 -2.69724 7.43032 -0.144315 -70.1915 -2.38542e-015 88.8779 -0.0310711 10.7595 1.96963 118.597 73.7652 -32.8237 13.1342 3.43533 0.764692 -1.52782 24.7471 4.82552 29.8703 7.82586 -0.130764 -120.609 35.6154 166.811 9.52751 0.295786 -0.907742 149.617 70.7703 -108.147 27.5574 4.95586 2.47156 1.1107 -6.60954 -10.4375 1.20734 -0.998971 20.1238 -70.8698 44.8313 -142.29 26.8049 -0.0536703 -0.155908 26.6231 -5.93493 -100.912 26.6817 -2.84217e-014 0.320147 3.18055e-015 1.59028e-015 -1.59028e-015 27.5927 4.71444 -2.65209 -2.58901 8.07142 46.2133 2.83739 -1.17114 -18.7564 -119.738 -0.21245 81.9702 28.839 -0.0548439 1.22491 5.99172 -7.1393 40.4795 26.5114 1.42109e-014 -0.101894 -1.1013e-012 -4.76474e-009 -0.0296889 -4.76168 -1.9167 -10.2353 -26.8905 17.9862 89.3083 2.55951 -42.0585 -8.02213 -3.42368 41.2305 -13.7486 3.16357 -42.5282 -3.95426 -2.14883 3.51814 0.518853 0.346054 -6.02161 12.8035 4.55457 -10.464 3.84069 -4.94151 -1.41743 10.6446 -41.2824 -17.2668 92.7347 -2.56294 -42.0364 -7.94377 2.35019 51.3039 -3.66079 -3.0952 -42.555 -4.02241 -7.8481 -5.52461 1.2219 -0.0828122 -6.13587 12.8035 2.25231 -13.5901 -13.526 
0 0 0 0 0 -0 37.2903 91.9497 -13.3306 60.8655 -46.7146 -20.0393 -2.69724 7.43032 -0.144315 -70.1915 -6.55989e-015 88.8779 -0.0310711 10.7595 1.96963 117.776 74.603 -32.9514 13.1342 3.43533 0.764692 -2.32075 25.2542 5.80811 29.8703 7.82586 -0.130764 -123.498 36.9307 167.021 9.52751 0.295786 -0.907742 146.225 71.865 -109.071 27.5574 4.95586 2.47156 1.17057 -6.48726 -12.3078 1.20734 -0.998971 20.1238 -74.9865 43.7505 -139.02 26.8049 -0.0536703 -0.155908 28.1557 -6.79371 -101.715 26.6817 -2.84217e-014 0.320147 6.36111e-015 -2.38542e-015 -3.97569e-015 27.5927 4.71444 -2.65209 -2.50891 7.74556 46.5598 2.83739 -1.17114 -18.7564 -119.704 0.901291 81.9917 28.839 -0.0548439 1.22491 4.0195 -5.42545 37.1445 26.5114 4.26326e-014 -0.101894 -1.1172e-012 -4.76474e-009 -0.0296889 -4.76168 -1.9167 -10.2353 -31.851 16.6531 91.604 2.55951 -42.0585 -8.02213 -3.35471 39.7576 -14.3979 3.16357 -42.5282 -3.95426 -2.92832 0.550454 0.346365 0.346054 -6.02161 12.8035 3.36066 -8.61411 5.87503 -4.94151 -1.41743 10.6446 -43.1483 -17.7854 90.8716 -2.56294 -42.0364 -7.94377 2.49218 48.2423 0.0892424 -3.0952 -42.555 -4.02241 -8.73517 -3.91443 1.28979 -0.0828122 -6.13587 12.8035 2.23354 -19.1722 -16.281 
0 0 0 0 0 -0 40.672 93.4983 -13.1025 60.1431 -47.4937 -20.6613 -2.69724 7.43032 -0.144315 -70.1915 -4.17448e-015 88.8779 -0.0310711 10.7595 1.96963 111.405 75.4445 -25.6519 13.1342 3.43533 0.764692 -1.93029 25.54 4.8654 29.8703 7.82586 -0.130764 -126.65 37.6852 167.959 9.52751 0.295786 -0.907742 146.14 72.9512 -112.169 27.5574 4.95586 2.47156 1.29343 -5.56439 -14.473 1.20734 -0.998971 20.1238 -78.6547 41.9386 -136.414 26.8049 -0.0536703 -0.155908 25.3178 -6.89701 -103.482 26.6817 0 0.320147 -3.18055e-015 7.95139e-016 -0 27.5927 4.71444 -2.65209 -2.5805 8.18636 45.6804 2.83739 -1.17114 -18.7564 -120.692 -0.664583 80.3498 28.839 -0.0548439 1.22491 2.64282 -3.71597 36.35 26.5114 2.84217e-014 -0.101894 -1.10766e-012 -4.76475e-009 -0.0296889 -4.76168 -1.9167 -10.2353 -34.5922 16.0646 93.884 2.55951 -42.0585 -8.02213 -3.19477 38.3691 -14.0838 3.16357 -42.5282 -3.95426 -2.11336 0.458593 0.226034 0.346054 -6.02161 12.8035 3.59673 -9.0455 5.84157 -4.94151 -1.41743 10.6446 -43.9403 -17.1509 87.6993 -2.56294 -42.0364 -7.94377 2.43036 42.0548 3.905 -3.0952 -42.555 -4.02241 -5.1477 -3.05957 0.896988 -0.0828122 -6.13587 12.8035 2.28189 -16.9963 -15.5161 
0 0 0 0 0 -0 43.6201 94.6446 -12.6654 60.4268 -47.3201 -20.0924 -2.69724 7.43032 -0.144315 -70.1915 -7.55382e-015 88.8779 -0.0310711 10.7595 1.96963 107.136 75.6292 -21.108 13.1342 3.43533 0.764692 -1.90292 25.498 4.27932 29.8703 7.82586 -0.130764 -129.476 38.1094 166.981 9.52751 0.295786 -0.907742 147.452 74.5164 -116.483 27.5574 4.95586 2.47156 1.35258 -5.18718 -15.3632 1.20734 -0.998971 20.1238 -80.87 41.0019 -135.74 26.8049 -0.0536703 -0.155908 19.8397 -5.98671 -105.337 26.6817 -2.84217e-014 0.320147 -9.54166e-015 -1.59028e-015 -1.59028e-015 27.5927 4.71444 -2.65209 -2.47875 7.94337 45.3922 2.83739 -1.17114 -18.7564 -122.091 -1.80625 78.4117 28.839 -0.0548439 1.22491 3.03177 -4.09659 37.3289 26.5114 2.84217e-014 -0.101894 -1.10766e-012 -4.76473e-009 -0.0296889 -4.76168 -1.9167 -10.2353 -36.9428 15.4659 95.5145 2.55951 -42.0585 -8.02213 -3.1995 37.277 -15.1424 3.16357 -42.5282 -3.95426 -2.46618 -0.13911 0.214774 0.346054 -6.02161 12.8035 3.59112 -9.34362 7.47115 -4.94151 -1.41743 10.6446 -45.5422 -16.0683 84.4801 -2.56294 -42.0364 -7.94377 1.67173 34.9432 6.4741 -3.0952 -42.555 -4.02241 -1.75577 1.28499 0.302606 -0.0828122 -6.13587 12.8035 2.22681 -16.5557 -11.4245 
